<svg width="20" height="20" viewBox="0 0 20 20" fill="none" xmlns="http://www.w3.org/2000/svg">
<path d="M14.4155 13.1728C15.0599 12.8564 15.7976 12.6764 16.5832 12.6764H16.5859C16.6658 12.6764 16.7031 12.5888 16.6445 12.5401C15.8275 11.8703 14.8942 11.3292 13.8828 10.9392C13.8722 10.9343 13.8615 10.9319 13.8509 10.927C15.5047 9.82968 16.5806 8.04623 16.5806 6.03406C16.5806 2.70073 13.6298 0 9.98938 0C6.34891 0 3.40085 2.70073 3.40085 6.03406C3.40085 8.04623 4.47675 9.82968 6.1332 10.927C6.12255 10.9319 6.1119 10.9343 6.10124 10.9392C4.91084 11.399 3.84293 12.0584 2.92416 12.9002C2.01069 13.7333 1.28345 14.7208 0.78302 15.8078C0.290646 16.8722 0.0249174 18.0126 6.65937e-05 19.1679C-0.000644203 19.1939 0.00434121 19.2197 0.0147292 19.2439C0.0251172 19.268 0.0406975 19.2901 0.0605522 19.3087C0.0804068 19.3273 0.104134 19.342 0.130336 19.3521C0.156537 19.3622 0.184683 19.3674 0.213115 19.3674H1.80832C1.92283 19.3674 2.0187 19.2822 2.02136 19.1776C2.07463 17.2993 2.89753 15.5401 4.35425 14.2068C5.8589 12.8273 7.86156 12.0681 9.99204 12.0681C11.502 12.0681 12.9508 12.4501 14.1998 13.1655C14.2318 13.1839 14.2687 13.1942 14.3065 13.1955C14.3444 13.1968 14.382 13.189 14.4155 13.1728ZM9.99204 10.219C8.77234 10.219 7.62454 9.78346 6.75903 8.9927C6.33319 8.60465 5.99559 8.14344 5.76569 7.63567C5.53579 7.12789 5.41813 6.58357 5.41949 6.03406C5.41949 4.91727 5.89619 3.86618 6.75903 3.07543C7.62188 2.28467 8.76968 1.84915 9.99204 1.84915C11.2144 1.84915 12.3595 2.28467 13.2251 3.07543C13.6509 3.46348 13.9885 3.92468 14.2184 4.43246C14.4483 4.94024 14.566 5.48456 14.5646 6.03406C14.5646 7.15085 14.0879 8.20195 13.2251 8.9927C12.3595 9.78346 11.2117 10.219 9.99204 10.219ZM19.787 16.0097H17.5499V13.9659C17.5499 13.8589 17.4541 13.7713 17.3369 13.7713H15.8456C15.7284 13.7713 15.6325 13.8589 15.6325 13.9659V16.0097H13.3955C13.2783 16.0097 13.1824 16.0973 13.1824 16.2044V17.5669C13.1824 17.674 13.2783 17.7616 13.3955 17.7616H15.6325V19.8054C15.6325 19.9124 15.7284 20 15.8456 20H17.3369C17.4541 20 17.5499 19.9124 17.5499 19.8054V17.7616H19.787C19.9041 17.7616 20 17.674 20 17.5669V16.2044C20 16.0973 19.9041 16.0097 19.787 16.0097Z" fill="#086DC0"/>
</svg>
