<svg width="26" height="26" viewBox="0 0 26 26" fill="none" xmlns="http://www.w3.org/2000/svg">
<g clip-path="url(#clip0_17_161)">
<path d="M13 0C5.82098 0 0 5.82098 0 13C0 20.179 5.82098 26 13 26C20.179 26 26 20.179 26 13C26 5.82098 20.179 0 13 0ZM13 23.7946C7.03973 23.7946 2.20536 18.9603 2.20536 13C2.20536 7.03973 7.03973 2.20536 13 2.20536C18.9603 2.20536 23.7946 7.03973 23.7946 13C23.7946 18.9603 18.9603 23.7946 13 23.7946Z" fill="url(#paint0_linear_17_161)"/>
<path d="M11.6072 7.89286C11.6072 8.26227 11.7539 8.61654 12.0151 8.87776C12.2763 9.13897 12.6306 9.28571 13 9.28571C13.3694 9.28571 13.7237 9.13897 13.9849 8.87776C14.2461 8.61654 14.3929 8.26227 14.3929 7.89286C14.3929 7.52345 14.2461 7.16917 13.9849 6.90796C13.7237 6.64675 13.3694 6.5 13 6.5C12.6306 6.5 12.2763 6.64675 12.0151 6.90796C11.7539 7.16917 11.6072 7.52345 11.6072 7.89286ZM13.6965 11.1429H12.3036C12.1759 11.1429 12.0715 11.2473 12.0715 11.375V19.2679C12.0715 19.3955 12.1759 19.5 12.3036 19.5H13.6965C13.8241 19.5 13.9286 19.3955 13.9286 19.2679V11.375C13.9286 11.2473 13.8241 11.1429 13.6965 11.1429Z" fill="url(#paint1_linear_17_161)"/>
</g>
<defs>
<linearGradient id="paint0_linear_17_161" x1="13" y1="0" x2="13" y2="26" gradientUnits="userSpaceOnUse">
<stop stop-color="#086DC0"/>
<stop offset="1" stop-color="#A5D6FF"/>
</linearGradient>
<linearGradient id="paint1_linear_17_161" x1="13" y1="6.5" x2="13" y2="19.5" gradientUnits="userSpaceOnUse">
<stop stop-color="#086DC0"/>
<stop offset="1" stop-color="#A5D6FF"/>
</linearGradient>
<clipPath id="clip0_17_161">
<rect width="26" height="26" fill="white"/>
</clipPath>
</defs>
</svg>
