<svg width="29" height="25" viewBox="0 0 29 25" fill="none" xmlns="http://www.w3.org/2000/svg">
<path fill-rule="evenodd" clip-rule="evenodd" d="M14.1569 23.4375C17.4422 23.4375 20.5929 22.2852 22.916 20.234C25.2391 18.1828 26.5441 15.4008 26.5441 12.5C26.5441 9.59919 25.2391 6.8172 22.916 4.76602C20.5929 2.71484 17.4422 1.5625 14.1569 1.5625C10.8716 1.5625 7.72082 2.71484 5.39776 4.76602C3.07469 6.8172 1.76961 9.59919 1.76961 12.5C1.76961 15.4008 3.07469 18.1828 5.39776 20.234C7.72082 22.2852 10.8716 23.4375 14.1569 23.4375ZM14.1569 25C17.9115 25 21.5124 23.683 24.1673 21.3388C26.8222 18.9946 28.3138 15.8152 28.3138 12.5C28.3138 9.18479 26.8222 6.00537 24.1673 3.66117C21.5124 1.31696 17.9115 0 14.1569 0C10.4022 0 6.80138 1.31696 4.14645 3.66117C1.49152 6.00537 0 9.18479 0 12.5C0 15.8152 1.49152 18.9946 4.14645 21.3388C6.80138 23.683 10.4022 25 14.1569 25Z" fill="#A6A6A6"/>
<path fill-rule="evenodd" clip-rule="evenodd" d="M7.583 14.9485C7.78622 14.8449 8.02773 14.8169 8.25439 14.8705C8.48105 14.9241 8.67431 15.055 8.79165 15.2345C9.33511 16.0662 10.1172 16.7569 11.0591 17.2369C12.001 17.717 13.0695 17.9694 14.1571 17.9688C15.2447 17.9694 16.3132 17.717 17.2551 17.2369C18.197 16.7569 18.9791 16.0662 19.5226 15.2345C19.5802 15.1449 19.6574 15.0663 19.7496 15.0032C19.8418 14.94 19.9473 14.8936 20.0599 14.8666C20.1725 14.8397 20.2901 14.8326 20.4058 14.8459C20.5215 14.8592 20.6331 14.8925 20.7341 14.944C20.8352 14.9955 20.9237 15.0642 20.9946 15.146C21.0655 15.2279 21.1173 15.3213 21.1472 15.4209C21.177 15.5205 21.1842 15.6244 21.1684 15.7264C21.1526 15.8285 21.1141 15.9268 21.055 16.0157C20.3563 17.085 19.3508 17.9729 18.1399 18.5901C16.929 19.2073 15.5553 19.5319 14.1571 19.5313C12.7589 19.5319 11.3852 19.2073 10.1743 18.5901C8.96339 17.9729 7.95794 17.085 7.25916 16.0157C7.14184 15.8363 7.11004 15.623 7.17077 15.4229C7.2315 15.2228 7.37979 15.0521 7.583 14.9485Z" fill="#A6A6A6"/>
<path d="M12.3872 10.1562C12.3872 11.45 11.5945 12.5 10.6176 12.5C9.64081 12.5 8.84802 11.45 8.84802 10.1562C8.84802 8.8625 9.64081 7.8125 10.6176 7.8125C11.5945 7.8125 12.3872 8.8625 12.3872 10.1562ZM19.4657 10.1562C19.4657 11.45 18.6729 12.5 17.6961 12.5C16.7192 12.5 15.9265 11.45 15.9265 10.1562C15.9265 8.8625 16.7192 7.8125 17.6961 7.8125C18.6729 7.8125 19.4657 8.8625 19.4657 10.1562Z" fill="#A6A6A6"/>
</svg>
