<svg width="40" height="40" viewBox="0 0 40 40" fill="none" xmlns="http://www.w3.org/2000/svg">
<path d="M18.0839 0.0501747C11.83 0.699921 6.35001 4.10523 3.0198 9.41282C-1.7019 16.9358 -0.81072 26.9247 5.16177 33.43C8.48416 37.0467 12.5961 39.1995 17.5367 39.904C18.467 40.0371 21.5392 40.0293 22.5007 39.8962C27.3632 39.223 31.4751 37.078 34.7897 33.477C36.0874 32.0679 37.1193 30.5336 38.0339 28.6469C39.2534 26.1262 39.8788 23.5585 39.9883 20.6699C40.1446 16.0669 38.7375 11.6204 35.9154 7.87847C35.1962 6.91559 33.5311 5.19336 32.5774 4.43402C29.7318 2.14033 26.4251 0.692093 22.7744 0.151943C21.8128 0.0110321 19.0376 -0.0515938 18.0839 0.0501747ZM20.8122 8.21509C21.2812 8.41079 21.547 8.95094 21.4454 9.49893C21.3985 9.75726 20.82 10.3679 16.5283 14.6813C13.8469 17.3742 11.5486 19.7305 11.4235 19.9262C10.2274 21.7111 9.9851 23.856 10.7512 25.7739C11.3844 27.3553 12.8463 28.7409 14.4488 29.2732C16.4814 29.9464 18.5842 29.5707 20.2728 28.2164C21.078 27.5745 28.9501 19.6131 29.1846 19.1982C30.4901 16.9201 29.169 14.0863 26.5892 13.6479C25.8935 13.5305 25.1508 13.6323 24.4473 13.9454C23.986 14.1411 23.6499 14.4542 20.0852 18.0005C17.865 20.2159 16.1843 21.9537 16.1218 22.0947C15.6918 23.0888 16.5595 24.1065 17.5992 23.8404C17.8885 23.7621 18.3263 23.355 21.1718 20.5133C24.6114 17.0845 24.588 17.108 25.1977 17.2176C25.9326 17.3585 26.3313 18.2431 25.9482 18.8772C25.7293 19.2373 19.9757 25.0381 19.4363 25.4452C17.951 26.5646 15.9576 26.4002 14.6912 25.0537C13.5733 23.8717 13.3935 22.0947 14.2534 20.7012C14.5192 20.2785 21.461 13.2722 22.2428 12.6381C23.3685 11.7378 24.5724 11.3151 26.0186 11.3151C30.1696 11.3151 33.0386 15.378 31.6549 19.2999C31.2328 20.4898 31.1937 20.5368 26.4485 25.3121C24.0017 27.778 21.7659 29.9777 21.4845 30.1891C18.1934 32.6942 13.4638 32.3732 10.5167 29.4532C8.88285 27.8328 8.04639 25.8131 8.03857 23.5194C8.03857 21.6798 8.47634 20.208 9.46915 18.7128C9.79748 18.2196 19.3738 8.52039 19.8037 8.25423C20.0852 8.082 20.4526 8.06635 20.8122 8.21509Z" fill="url(#paint0_linear_17_30)"/>
<defs>
<linearGradient id="paint0_linear_17_30" x1="20" y1="0" x2="20" y2="40" gradientUnits="userSpaceOnUse">
<stop stop-color="#086DC0"/>
<stop offset="1" stop-color="#A5D6FF"/>
</linearGradient>
</defs>
</svg>
