<svg width="16" height="16" viewBox="0 0 16 16" fill="none" xmlns="http://www.w3.org/2000/svg">
<g clip-path="url(#clip0_30_77)">
<path d="M14.1178 4.01071L10.2749 0.167857C10.1678 0.0607143 10.0232 0 9.87138 0H2.28566C1.96959 0 1.71423 0.255357 1.71423 0.571429V15.4286C1.71423 15.7446 1.96959 16 2.28566 16H13.7142C14.0303 16 14.2857 15.7446 14.2857 15.4286V4.41607C14.2857 4.26429 14.2249 4.11786 14.1178 4.01071ZM12.9678 4.67857H9.60709V1.31786L12.9678 4.67857ZM12.9999 14.7143H2.99995V1.28571H8.39281V5.14286C8.39281 5.34177 8.47182 5.53254 8.61247 5.67319C8.75313 5.81384 8.94389 5.89286 9.14281 5.89286H12.9999V14.7143Z" fill="#086DC0"/>
</g>
<defs>
<clipPath id="clip0_30_77">
<rect width="16" height="16" fill="white"/>
</clipPath>
</defs>
</svg>
