<svg width="12" height="12" viewBox="0 0 12 12" fill="none" xmlns="http://www.w3.org/2000/svg">
<g clip-path="url(#clip0_196_1540)">
<path d="M10.7678 8.94659H9.82629C9.762 8.94659 9.70173 8.97471 9.66156 9.02427C9.56781 9.13811 9.46736 9.24793 9.36156 9.35239C8.92882 9.78556 8.41625 10.1308 7.85218 10.3689C7.26779 10.6157 6.63968 10.7424 6.00531 10.7412C5.36379 10.7412 4.74236 10.6153 4.15843 10.3689C3.59436 10.1308 3.08179 9.78556 2.64906 9.35239C2.21555 8.92069 1.86988 8.40901 1.6312 7.8457C1.38343 7.26177 1.25888 6.64168 1.25888 6.00016C1.25888 5.35864 1.38477 4.73855 1.6312 4.15462C1.86959 3.59079 2.21245 3.0832 2.64906 2.64793C3.08566 2.21266 3.59325 1.8698 4.15843 1.63141C4.74236 1.38498 5.36379 1.25909 6.00531 1.25909C6.64682 1.25909 7.26825 1.38364 7.85218 1.63141C8.41736 1.8698 8.92495 2.21266 9.36156 2.64793C9.46736 2.75373 9.56647 2.86355 9.66156 2.97605C9.70173 3.02561 9.76334 3.05373 9.82629 3.05373H10.7678C10.8522 3.05373 10.9044 2.95998 10.8575 2.889C9.83031 1.29257 8.03298 0.235874 5.99057 0.241231C2.78165 0.249267 0.208878 2.85418 0.241021 6.05909C0.273163 9.21311 2.84191 11.7591 6.00531 11.7591C8.04236 11.7591 9.83165 10.7037 10.8575 9.11132C10.9031 9.04034 10.8522 8.94659 10.7678 8.94659ZM11.9584 5.91579L10.058 4.41579C9.987 4.35954 9.88388 4.41043 9.88388 4.50016V5.51802H5.67852C5.61959 5.51802 5.57138 5.56623 5.57138 5.62516V6.37516C5.57138 6.43409 5.61959 6.4823 5.67852 6.4823H9.88388V7.50016C9.88388 7.58989 9.98834 7.64078 10.058 7.58453L11.9584 6.08453C11.9712 6.07451 11.9816 6.06171 11.9887 6.04709C11.9958 6.03247 11.9995 6.01642 11.9995 6.00016C11.9995 5.9839 11.9958 5.96785 11.9887 5.95323C11.9816 5.93861 11.9712 5.92581 11.9584 5.91579Z" fill="#086DC0"/>
</g>
<defs>
<clipPath id="clip0_196_1540">
<rect width="12" height="12" fill="white"/>
</clipPath>
</defs>
</svg>
