<svg width="14" height="14" viewBox="0 0 14 14" fill="none" xmlns="http://www.w3.org/2000/svg">
<path d="M11.7732 1.26161C10.091 -0.420536 7.35175 -0.420536 5.67139 1.26161L1.01068 5.91875C0.980321 5.94911 0.96425 5.99018 0.96425 6.03303C0.96425 6.07589 0.980321 6.11696 1.01068 6.14732L1.66961 6.80625C1.69973 6.83624 1.7405 6.85307 1.783 6.85307C1.8255 6.85307 1.86627 6.83624 1.89639 6.80625L6.55711 2.14911C7.13568 1.57054 7.90532 1.25268 8.72318 1.25268C9.54103 1.25268 10.3107 1.57054 10.8875 2.14911C11.466 2.72768 11.7839 3.49732 11.7839 4.31339C11.7839 5.13125 11.466 5.89911 10.8875 6.47768L6.13746 11.2259L5.36782 11.9955C4.64818 12.7152 3.47854 12.7152 2.75889 11.9955C2.41068 11.6473 2.21961 11.1848 2.21961 10.692C2.21961 10.1991 2.41068 9.73661 2.75889 9.38839L7.47139 4.67768C7.59104 4.55982 7.74818 4.49375 7.91603 4.49375H7.91782C8.08568 4.49375 8.24103 4.55982 8.35889 4.67768C8.47853 4.79732 8.54282 4.95446 8.54282 5.12232C8.54282 5.28839 8.47675 5.44554 8.35889 5.56339L4.50711 9.41161C4.47675 9.44196 4.46068 9.48304 4.46068 9.52589C4.46068 9.56875 4.47675 9.60982 4.50711 9.64018L5.16604 10.2991C5.19615 10.3291 5.23693 10.3459 5.27943 10.3459C5.32193 10.3459 5.3627 10.3291 5.39282 10.2991L9.24282 6.44911C9.59818 6.09375 9.79282 5.62232 9.79282 5.12054C9.79282 4.61875 9.59639 4.14553 9.24282 3.79196C8.50889 3.05804 7.31604 3.05982 6.58211 3.79196L6.12496 4.25089L1.87139 8.50268C1.5827 8.78968 1.35385 9.13114 1.19813 9.50726C1.04241 9.88338 0.962916 10.2867 0.96425 10.6937C0.96425 11.5205 1.28746 12.2973 1.87139 12.8812C2.47675 13.4848 3.26961 13.7866 4.06246 13.7866C4.85532 13.7866 5.64818 13.4848 6.25175 12.8812L11.7732 7.36339C12.5857 6.54911 13.0357 5.46518 13.0357 4.31339C13.0375 3.15982 12.5875 2.07589 11.7732 1.26161Z" fill="#BABABA"/>
</svg>
