<svg width="20" height="20" viewBox="0 0 20 20" fill="none" xmlns="http://www.w3.org/2000/svg">
<path d="M18.1764 7.3237L12.6764 1.8237C12.5313 1.67861 12.3416 1.60718 12.1518 1.60718C11.9621 1.60718 11.7724 1.67861 11.6273 1.8237L8.0313 5.42191C7.75898 5.39066 7.48443 5.37727 7.20987 5.37727C5.57594 5.37727 3.94201 5.91521 2.6005 6.99111C2.51926 7.05634 2.45268 7.13795 2.40508 7.23062C2.35749 7.3233 2.32995 7.42497 2.32426 7.52899C2.31858 7.63302 2.33487 7.73708 2.37208 7.8344C2.40929 7.93171 2.46659 8.02009 2.54023 8.09378L6.59603 12.1496L1.788 16.9532C1.72908 17.0117 1.69272 17.0892 1.68532 17.1719L1.60943 18.0023C1.58934 18.2121 1.75675 18.3907 1.96434 18.3907C1.9755 18.3907 1.98666 18.3907 1.99782 18.3884L2.82818 18.3125C2.91076 18.3058 2.98889 18.2679 3.04693 18.2099L7.85496 13.4018L11.9108 17.4576C12.0559 17.6027 12.2456 17.6741 12.4353 17.6741C12.6518 17.6741 12.8661 17.5804 13.0134 17.3974C14.2701 15.8282 14.7925 13.8639 14.5804 11.9643L18.1764 8.36834C18.4643 8.08262 18.4643 7.61387 18.1764 7.3237ZM13.442 10.8326L12.8951 11.3795L12.98 12.1474C13.113 13.335 12.876 14.5347 12.3014 15.5826L4.41969 7.69646C4.70764 7.53798 5.00675 7.40405 5.31925 7.29691C5.92639 7.08709 6.56255 6.98218 7.20987 6.98218C7.42416 6.98218 7.64068 6.99334 7.85496 7.01789L8.62282 7.10271L9.16969 6.55584L12.1541 3.57146L16.4286 7.84602L13.442 10.8326Z" fill="#086DC0"/>
</svg>
