<svg width="16" height="16" viewBox="0 0 16 16" fill="none" xmlns="http://www.w3.org/2000/svg">
<g clip-path="url(#clip0_25_1685)">
<path d="M13.575 11.3553C13.128 10.908 12.6057 10.5429 12.0321 10.2768C12.841 9.62139 13.3571 8.62139 13.3571 7.49997C13.3571 5.52139 11.7071 3.89818 9.72853 3.92854C7.78031 3.95889 6.21067 5.54639 6.21067 7.49997C6.21067 8.62139 6.72853 9.62139 7.53567 10.2768C6.96193 10.5427 6.43964 10.9078 5.99282 11.3553C5.01782 12.3321 4.46424 13.6214 4.42853 14.9964C4.42805 15.0155 4.4314 15.0344 4.43836 15.0522C4.44533 15.0699 4.45577 15.0861 4.46909 15.0997C4.4824 15.1134 4.49831 15.1242 4.51588 15.1316C4.53345 15.139 4.55232 15.1428 4.57139 15.1428H5.57139C5.64817 15.1428 5.71246 15.0821 5.71424 15.0053C5.74817 13.9696 6.16782 13 6.90531 12.2643C7.28271 11.8849 7.7316 11.5841 8.22601 11.3793C8.72043 11.1746 9.25054 11.0699 9.78567 11.0714C10.8732 11.0714 11.8964 11.4946 12.666 12.2643C13.4017 13 13.8214 13.9696 13.8571 15.0053C13.8589 15.0821 13.9232 15.1428 14 15.1428H15C15.019 15.1428 15.0379 15.139 15.0555 15.1316C15.073 15.1242 15.0889 15.1134 15.1023 15.0997C15.1156 15.0861 15.126 15.0699 15.133 15.0522C15.1399 15.0344 15.1433 15.0155 15.1428 14.9964C15.1071 13.6214 14.5535 12.3321 13.575 11.3553ZM9.78567 9.78568C9.17496 9.78568 8.59996 9.54818 8.1696 9.11604C7.95362 8.90176 7.78302 8.64618 7.66797 8.36454C7.55292 8.08289 7.49578 7.78096 7.49996 7.47675C7.50531 6.89104 7.73924 6.32497 8.14817 5.90532C8.57674 5.46604 9.14996 5.22139 9.76246 5.21425C10.3678 5.20889 10.9553 5.44461 11.3875 5.86782C11.8303 6.30175 12.0732 6.88211 12.0732 7.49997C12.0732 8.11068 11.8357 8.68389 11.4035 9.11604C11.1915 9.32907 10.9394 9.49794 10.6617 9.61288C10.384 9.72782 10.0862 9.78656 9.78567 9.78568ZM5.31246 7.97139C5.29639 7.81604 5.28746 7.65889 5.28746 7.49997C5.28746 7.21604 5.31424 6.93925 5.36424 6.66961C5.37674 6.60532 5.34281 6.53925 5.28389 6.51247C5.04103 6.40354 4.81781 6.25354 4.62496 6.06425C4.39771 5.84391 4.21888 5.57861 4.0999 5.28529C3.98091 4.99197 3.92437 4.67707 3.93389 4.36068C3.94996 3.78747 4.18031 3.24282 4.5821 2.83211C5.02317 2.38032 5.61603 2.13389 6.24639 2.14104C6.81603 2.14639 7.36603 2.36604 7.7821 2.75532C7.92317 2.88747 8.0446 3.03389 8.14639 3.19104C8.1821 3.24639 8.25174 3.26961 8.31246 3.24818C8.62674 3.13925 8.95889 3.06247 9.29996 3.02675C9.39996 3.01604 9.4571 2.90889 9.41246 2.81961C8.8321 1.67139 7.64639 0.878537 6.27496 0.857108C4.2946 0.826751 2.6446 2.44997 2.6446 4.42675C2.6446 5.54818 3.16067 6.54818 3.9696 7.20354C3.40174 7.46604 2.87853 7.82854 2.42496 8.28211C1.44639 9.25889 0.892815 10.5482 0.8571 11.925C0.856624 11.944 0.859967 11.963 0.866932 11.9807C0.873898 11.9985 0.884345 12.0147 0.897658 12.0283C0.910971 12.0419 0.926882 12.0528 0.944451 12.0602C0.96202 12.0676 0.980893 12.0714 0.999957 12.0714H2.00174C2.07853 12.0714 2.14281 12.0107 2.1446 11.9339C2.17853 10.8982 2.59817 9.92854 3.33567 9.19282C3.86067 8.66782 4.50353 8.30354 5.20531 8.12675C5.27496 8.10889 5.32139 8.04282 5.31246 7.97139Z" fill="#086DC0"/>
</g>
<defs>
<clipPath id="clip0_25_1685">
<rect width="16" height="16" fill="white"/>
</clipPath>
</defs>
</svg>
