<svg width="25" height="25" viewBox="0 0 25 25" fill="none" xmlns="http://www.w3.org/2000/svg">
<path d="M5.61009 0.0982952C5.25344 0.220955 4.99938 0.402277 4.71601 0.738258C4.43264 1.06891 4.26653 1.44222 4.19324 1.91686C4.15416 2.16218 4.14439 4.37005 4.15416 9.30311L4.16882 16.3427L4.2763 16.652C4.48638 17.2653 4.95541 17.7933 5.49772 18.0279L5.78109 18.1559L14.4043 18.1719C20.7068 18.1826 23.1057 18.1719 23.3207 18.1293C24.1268 17.9586 24.801 17.2173 24.9573 16.3427C24.9964 16.1134 25.0062 14.0548 24.9964 8.87646L24.9818 1.7302L24.8743 1.44755C24.718 1.02091 24.4004 0.604933 24.0633 0.364946C23.5014 -0.0296974 24.2489 -0.00303268 14.5802 0.00230026C6.39668 0.00230026 5.86414 0.00763321 5.61009 0.0982952ZM23.389 1.25556C23.7115 1.43155 23.9118 1.75153 23.9558 2.15151C23.9704 2.30084 23.9802 4.72203 23.9704 7.53787L23.9558 12.6469L21.6449 9.70842C20.3795 8.09251 19.246 6.69525 19.1336 6.60992C18.6157 6.19928 17.8585 6.20461 17.3162 6.62592C17.2087 6.71125 15.7137 8.64714 13.0021 12.2043C12.9923 12.2203 12.6064 11.8203 12.1422 11.3137C11.1553 10.2417 11.0332 10.1617 10.4225 10.1617C9.70917 10.1564 9.74825 10.1297 7.33473 12.7589L5.21924 15.0574V8.51382C5.21924 2.17284 5.22412 1.95952 5.31206 1.76753C5.36581 1.66087 5.4684 1.50621 5.54658 1.42622C5.85926 1.1009 5.21924 1.12224 14.5802 1.1169H23.1301L23.389 1.25556ZM18.5473 7.5592C18.6109 7.6072 19.8567 9.17511 21.3175 11.0363L23.9753 14.4228L23.9802 15.1854C23.9802 15.6067 23.9558 16.0601 23.9216 16.1987C23.8434 16.54 23.5014 16.9133 23.1887 16.9987C22.8907 17.084 6.26477 17.0893 5.99606 17.0093C5.89834 16.9773 5.74689 16.9027 5.65895 16.8333C5.31206 16.5774 5.17038 16.7693 7.78421 13.9162C9.3574 12.1989 10.2173 11.2977 10.3003 11.2763C10.3736 11.2603 10.4958 11.271 10.5739 11.303C10.6521 11.335 11.1651 11.8523 11.7172 12.4496C12.2693 13.0469 12.7823 13.5642 12.8604 13.5962C13.1878 13.7295 13.1731 13.7455 15.6306 10.5297C17.1403 8.55115 17.9708 7.50587 18.0588 7.46854C18.22 7.40455 18.3959 7.43654 18.5473 7.5592Z" fill="#9E9E9E"/>
<path d="M8.73702 3.5061C8.38036 3.63409 8.12631 3.82075 7.84294 4.1514C7.08566 5.03668 7.11497 6.39127 7.91134 7.26589C9.11321 8.57781 11.131 7.85785 11.4241 6.01796C11.5414 5.29267 11.2971 4.55137 10.7695 4.00741C10.3591 3.59143 10.0464 3.45277 9.44544 3.42611C9.11321 3.41544 8.93733 3.43144 8.73702 3.5061ZM9.78744 4.63137C10.5594 5.01002 10.6033 6.20995 9.86072 6.65792C9.40635 6.93524 8.82984 6.78058 8.52205 6.30061C8.32662 5.99663 8.28753 5.50599 8.4341 5.19134C8.70282 4.6207 9.28421 4.38072 9.78744 4.63137Z" fill="#9E9E9E"/>
<path d="M2.32696 8.82322C2.24879 8.87122 2.16573 8.99388 2.12176 9.12721C1.9361 9.66584 0.0306924 17.5427 0.00626407 17.8627C-0.0621353 18.7587 0.436203 19.6919 1.17883 20.0653C1.32051 20.1346 2.68361 20.5612 4.21771 21.0092C5.75181 21.4518 9.42095 22.5291 12.3768 23.3931C15.3326 24.257 17.8878 24.9823 18.049 24.993C18.821 25.0676 19.676 24.5397 20.0229 23.7824C20.1792 23.4411 21 20.1612 21 19.8786C21 19.6386 20.8143 19.3773 20.614 19.3293C20.4381 19.2866 20.145 19.4146 20.0717 19.5693C20.0277 19.6599 19.1434 23.1424 19.1434 23.2277C19.1434 23.2437 19.0506 23.3611 18.9431 23.4891C18.7917 23.6704 18.6744 23.7504 18.4741 23.8144C18.1712 23.9104 18.2103 23.9157 16.9205 23.5371C16.383 23.3824 12.7334 22.3158 8.81024 21.1692C1.10065 18.9186 1.40845 19.0253 1.17883 18.588C0.954084 18.1454 0.929656 18.2894 2.06802 13.6603C2.64453 11.3084 3.11844 9.31919 3.11844 9.24453C3.11844 9.1592 3.05492 9.03654 2.95232 8.92455C2.76667 8.7219 2.55658 8.6899 2.32696 8.82322Z" fill="#9E9E9E"/>
</svg>
