<svg width="16" height="16" viewBox="0 0 16 16" fill="none" xmlns="http://www.w3.org/2000/svg">
<g clip-path="url(#clip0_30_186)">
<path d="M8.73388 7.94821L7.34459 9.71964L6.61066 8.78393C6.5973 8.76686 6.58022 8.75305 6.56073 8.74355C6.54124 8.73405 6.51984 8.72912 6.49816 8.72912C6.47648 8.72912 6.45508 8.73405 6.43559 8.74355C6.4161 8.75305 6.39903 8.76686 6.38566 8.78393L4.60352 11.0554C4.58703 11.0764 4.5768 11.1017 4.574 11.1283C4.57119 11.1549 4.57593 11.1817 4.58767 11.2057C4.5994 11.2298 4.61766 11.25 4.64036 11.2642C4.66306 11.2783 4.68928 11.2858 4.71602 11.2857H11.2857C11.4053 11.2857 11.4714 11.1482 11.3982 11.0554L8.96066 7.94821C8.94712 7.93111 8.92989 7.9173 8.91025 7.9078C8.89061 7.8983 8.86908 7.89337 8.84727 7.89337C8.82546 7.89337 8.80393 7.8983 8.78429 7.9078C8.76465 7.9173 8.74742 7.93111 8.73388 7.94821ZM5.28566 6.75C5.28566 6.93944 5.36092 7.12112 5.49487 7.25508C5.62883 7.38903 5.81051 7.46429 5.99995 7.46429C6.18939 7.46429 6.37107 7.38903 6.50502 7.25508C6.63898 7.12112 6.71423 6.93944 6.71423 6.75C6.71423 6.56056 6.63898 6.37888 6.50502 6.24492C6.37107 6.11097 6.18939 6.03571 5.99995 6.03571C5.81051 6.03571 5.62883 6.11097 5.49487 6.24492C5.36092 6.37888 5.28566 6.56056 5.28566 6.75ZM14.1178 4.01071L10.2749 0.167857C10.1678 0.0607143 10.0232 0 9.87138 0H2.28566C1.96959 0 1.71423 0.255357 1.71423 0.571429V15.4286C1.71423 15.7446 1.96959 16 2.28566 16H13.7142C14.0303 16 14.2857 15.7446 14.2857 15.4286V4.41607C14.2857 4.26429 14.2249 4.11786 14.1178 4.01071ZM12.9678 4.67857H9.60709V1.31786L12.9678 4.67857ZM12.9999 14.7143H2.99995V1.28571H8.39281V5.14286C8.39281 5.34177 8.47182 5.53254 8.61247 5.67319C8.75313 5.81384 8.94389 5.89286 9.14281 5.89286H12.9999V14.7143Z" fill="#086DC0"/>
</g>
<defs>
<clipPath id="clip0_30_186">
<rect width="16" height="16" fill="white"/>
</clipPath>
</defs>
</svg>
