<svg width="40" height="40" viewBox="0 0 40 40" fill="none" xmlns="http://www.w3.org/2000/svg">
<path d="M2.28846 0.139397C0.950367 0.620491 0.0845405 1.75761 0.00582904 3.14841C-0.0291538 3.79569 0.0408119 4.11934 1.73748 10.9333C2.717 14.8433 3.5391 18.071 3.56534 18.106C3.59157 18.1322 8.0344 18.5608 13.4393 19.0594C18.8354 19.558 23.2519 19.9866 23.2519 20.0128C23.2519 20.0391 18.8354 20.4677 13.4393 20.9663C8.0344 21.4649 3.59157 21.8935 3.56534 21.9197C3.5391 21.9547 2.717 25.1824 1.73748 29.0923C0.0408119 35.9064 -0.0291538 36.23 0.00582904 36.8773C0.0583034 37.7607 0.346912 38.3993 0.98535 39.0466C1.26521 39.3177 1.69375 39.6326 1.97362 39.7638C2.42839 39.9738 2.58582 40 3.41666 40H4.3612L21.4678 31.4453C40.2974 22.0247 39.1517 22.6545 39.7201 21.5086C39.9825 20.975 40 20.8788 40 20.0128C40 19.1469 39.9825 19.0507 39.7201 18.5171C39.1517 17.3712 40.2974 18.001 21.4766 8.58036L4.37869 0.0344315L3.55659 0.00819016C2.93564 -0.0180511 2.63829 0.0169373 2.28846 0.139397Z" fill="url(#paint0_linear_17_28)"/>
<defs>
<linearGradient id="paint0_linear_17_28" x1="20" y1="0" x2="20" y2="40" gradientUnits="userSpaceOnUse">
<stop stop-color="#086DC0"/>
<stop offset="1" stop-color="#A5D6FF"/>
</linearGradient>
</defs>
</svg>
