<svg width="14" height="14" viewBox="0 0 14 14" fill="none" xmlns="http://www.w3.org/2000/svg">
<g clip-path="url(#clip0_196_1676)">
<path d="M13.45 8.77695L12.4265 7.90195C12.475 7.60508 12.5 7.30195 12.5 6.99883C12.5 6.6957 12.475 6.39258 12.4265 6.0957L13.45 5.2207C13.5272 5.15462 13.5824 5.0666 13.6084 4.96836C13.6343 4.87011 13.6297 4.76629 13.5953 4.6707L13.5812 4.63008C13.2995 3.84262 12.8776 3.11263 12.3359 2.47539L12.3078 2.44258C12.2421 2.36532 12.1545 2.30978 12.0566 2.28328C11.9587 2.25678 11.855 2.26057 11.7593 2.29414L10.489 2.7457C10.0203 2.36133 9.49683 2.0582 8.9312 1.8457L8.68589 0.517578C8.66739 0.417644 8.61891 0.325707 8.5469 0.253981C8.4749 0.182255 8.38277 0.134136 8.28277 0.116016L8.24058 0.108203C7.42652 -0.0386719 6.57027 -0.0386719 5.7562 0.108203L5.71402 0.116016C5.61401 0.134136 5.52189 0.182255 5.44988 0.253981C5.37788 0.325707 5.3294 0.417644 5.31089 0.517578L5.06402 1.85195C4.50291 2.0645 3.98037 2.36746 3.51714 2.74883L2.23745 2.29414C2.14178 2.2603 2.03807 2.25638 1.9401 2.28289C1.84214 2.3094 1.75457 2.3651 1.68902 2.44258L1.66089 2.47539C1.11987 3.11308 0.698042 3.84295 0.415579 4.63008L0.401517 4.6707C0.331204 4.86602 0.389017 5.08477 0.546829 5.2207L1.58277 6.10508C1.53433 6.39883 1.51089 6.69883 1.51089 6.99727C1.51089 7.29727 1.53433 7.59727 1.58277 7.88945L0.546829 8.77383C0.469635 8.83991 0.414386 8.92793 0.388429 9.02618C0.362472 9.12442 0.367037 9.22824 0.401517 9.32383L0.415579 9.36445C0.698392 10.152 1.11714 10.8785 1.66089 11.5191L1.68902 11.552C1.75473 11.6292 1.8423 11.6848 1.94021 11.7113C2.03811 11.7378 2.14175 11.734 2.23745 11.7004L3.51714 11.2457C3.98277 11.6285 4.50308 11.9316 5.06402 12.1426L5.31089 13.477C5.3294 13.5769 5.37788 13.6688 5.44988 13.7406C5.52189 13.8123 5.61401 13.8604 5.71402 13.8785L5.7562 13.8863C6.57775 14.034 7.41904 14.034 8.24058 13.8863L8.28277 13.8785C8.38277 13.8604 8.4749 13.8123 8.5469 13.7406C8.61891 13.6688 8.66739 13.5769 8.68589 13.477L8.9312 12.1488C9.4966 11.9369 10.023 11.6328 10.489 11.2488L11.7593 11.7004C11.855 11.7342 11.9587 11.7382 12.0567 11.7116C12.1546 11.6851 12.2422 11.6294 12.3078 11.552L12.3359 11.5191C12.8796 10.877 13.2984 10.152 13.5812 9.36445L13.5953 9.32383C13.6656 9.13164 13.6078 8.91289 13.45 8.77695ZM11.3171 6.28008C11.3562 6.51602 11.3765 6.7582 11.3765 7.00039C11.3765 7.24258 11.3562 7.48477 11.3171 7.7207L11.214 8.34727L12.3812 9.3457C12.2043 9.75334 11.9809 10.1392 11.7156 10.4957L10.2656 9.98164L9.77495 10.3848C9.40152 10.691 8.98589 10.9316 8.53589 11.1004L7.94058 11.3238L7.66089 12.8395C7.2196 12.8895 6.77406 12.8895 6.33277 12.8395L6.05308 11.3207L5.46245 11.0941C5.01714 10.9254 4.60308 10.6848 4.23277 10.3801L3.74214 9.97539L2.28277 10.4941C2.01714 10.1363 1.79527 9.75039 1.61714 9.34414L2.79683 8.33633L2.69527 7.71133C2.65777 7.47852 2.63745 7.23789 2.63745 7.00039C2.63745 6.76133 2.6562 6.52227 2.69527 6.28945L2.79683 5.66445L1.61714 4.65664C1.7937 4.24883 2.01714 3.86445 2.28277 3.50664L3.74214 4.02539L4.23277 3.6207C4.60308 3.31602 5.01714 3.07539 5.46245 2.90664L6.05464 2.6832L6.33433 1.16445C6.77339 1.11445 7.22183 1.11445 7.66246 1.16445L7.94214 2.68008L8.53746 2.90352C8.98589 3.07227 9.40308 3.31289 9.77652 3.61914L10.2671 4.02227L11.7171 3.5082C11.9828 3.86602 12.2046 4.25195 12.3828 4.6582L11.2156 5.65664L11.3171 6.28008ZM6.99996 4.09414C5.4812 4.09414 4.24995 5.32539 4.24995 6.84414C4.24995 8.36289 5.4812 9.59414 6.99996 9.59414C8.51871 9.59414 9.74996 8.36289 9.74996 6.84414C9.74996 5.32539 8.51871 4.09414 6.99996 4.09414ZM8.23746 8.08164C8.07515 8.24442 7.88225 8.3735 7.66988 8.46145C7.4575 8.54941 7.22983 8.5945 6.99996 8.59414C6.53277 8.59414 6.0937 8.41133 5.76245 8.08164C5.59968 7.91933 5.4706 7.72644 5.38265 7.51406C5.29469 7.30168 5.2496 7.07401 5.24995 6.84414C5.24995 6.37695 5.43277 5.93789 5.76245 5.60664C6.0937 5.27539 6.53277 5.09414 6.99996 5.09414C7.46714 5.09414 7.90621 5.27539 8.23746 5.60664C8.40023 5.76895 8.52931 5.96184 8.61726 6.17422C8.70522 6.3866 8.75031 6.61427 8.74996 6.84414C8.74996 7.31133 8.56714 7.75039 8.23746 8.08164Z" fill="#086DC0"/>
</g>
<defs>
<clipPath id="clip0_196_1676">
<rect width="14" height="14" fill="white"/>
</clipPath>
</defs>
</svg>
