<svg width="11" height="11" viewBox="0 0 11 11" fill="none" xmlns="http://www.w3.org/2000/svg">
<path d="M3.10714 0.964286H3C3.05893 0.964286 3.10714 0.916071 3.10714 0.857143V0.964286H7.17857V0.857143C7.17857 0.916071 7.22679 0.964286 7.28571 0.964286H7.17857V1.92857H8.14286V0.857143C8.14286 0.384375 7.75848 0 7.28571 0H3C2.52723 0 2.14286 0.384375 2.14286 0.857143V1.92857H3.10714V0.964286ZM9.85714 1.92857H0.428571C0.191518 1.92857 0 2.12009 0 2.35714V2.78571C0 2.84464 0.0482143 2.89286 0.107143 2.89286H0.916071L1.24688 9.89732C1.2683 10.354 1.64598 10.7143 2.10268 10.7143H8.18304C8.64107 10.7143 9.01741 10.3554 9.03884 9.89732L9.36964 2.89286H10.1786C10.2375 2.89286 10.2857 2.84464 10.2857 2.78571V2.35714C10.2857 2.12009 10.0942 1.92857 9.85714 1.92857ZM8.07991 9.75H2.2058L1.8817 2.89286H8.40402L8.07991 9.75Z" fill="#086DC0"/>
</svg>
