<svg width="35" height="25" viewBox="0 0 35 25" fill="none" xmlns="http://www.w3.org/2000/svg">
<path d="M3.53121 0.0857372C2.02018 0.395699 0.517363 1.87011 0.0985453 3.45343C-0.0328484 3.96445 -0.0328484 21.0543 0.0985453 21.5653C0.500938 23.0732 1.897 24.5057 3.36696 24.9078C3.62975 24.9749 6.29869 25 13.1558 25H22.5915L23.1664 24.7989C23.9383 24.5225 24.4557 24.1706 25.0551 23.5172C25.5971 22.9308 26.057 22.0512 26.2048 21.3223C26.328 20.7024 26.328 4.3163 26.2048 3.69638C25.8928 2.14657 24.6035 0.688906 23.1171 0.20302L22.5504 0.0187168L13.279 0.00196266C6.42187 -0.00641441 3.88433 0.0103397 3.53121 0.0857372Z" fill="url(#paint0_linear_13_96)"/>
<path d="M33.1936 3.36127C32.898 3.51206 29.2108 6.48603 29.0301 6.71221C28.948 6.81274 28.9233 8.10286 28.9233 12.501C28.9233 15.6173 28.9562 18.206 28.989 18.2646C29.0219 18.3149 29.9499 19.094 31.0585 19.9987C33.1033 21.6742 33.44 21.8752 33.9245 21.7663C34.2694 21.6909 34.6554 21.4145 34.8361 21.1213C35.0003 20.8532 35.0003 20.6773 35.0003 12.501V4.15712L34.8114 3.87229C34.6143 3.56233 34.0148 3.21048 33.6864 3.21048C33.5714 3.21048 33.3497 3.2775 33.1936 3.36127Z" fill="url(#paint1_linear_13_96)"/>
<defs>
<linearGradient id="paint0_linear_13_96" x1="13.1486" y1="0" x2="13.1486" y2="25" gradientUnits="userSpaceOnUse">
<stop stop-color="#086DC0"/>
<stop offset="1" stop-color="#A5D6FF"/>
</linearGradient>
<linearGradient id="paint1_linear_13_96" x1="31.9618" y1="3.21048" x2="31.9618" y2="21.7906" gradientUnits="userSpaceOnUse">
<stop stop-color="#086DC0"/>
<stop offset="1" stop-color="#A5D6FF"/>
</linearGradient>
</defs>
</svg>
